<svg xmlns="http://www.w3.org/2000/svg" viewBox="0 0 32 32">
  <defs>
    <linearGradient id="gradient" x1="0%" y1="0%" x2="100%" y2="100%">
      <stop offset="0%" stop-color="#9333ea" />
      <stop offset="100%" stop-color="#3b82f6" />
    </linearGradient>
    <filter id="blur" x="-50%" y="-50%" width="200%" height="200%">
      <feGaussianBlur in="SourceGraphic" stdDeviation="1" />
    </filter>
  </defs>
  <rect width="32" height="32" rx="8" fill="url(#gradient)" />
  <rect width="32" height="32" rx="8" fill="url(#gradient)" opacity="0.2" filter="url(#blur)" />
  <path d="M16.9 10c-.2.2-.2.4-.1.6l.9 2.9c0 .1-.1.3-.2.3l-2.9.9c-.2.1-.4.3-.4.5s0 .4.2.6l2.2 2.2c.1.1.1.2.1.4l-.9 2.9c-.1.2 0 .4.1.6.2.2.4.2.6.1l2.9-.9c.1 0 .3 0 .4.1l2.2 2.2c.1.1.3.2.5.2s.4-.1.5-.2l-5.4-5.4 5.4-5.4c-.1-.1-.3-.2-.5-.2s-.4.1-.5.2l-2.2 2.2c-.1.1-.2.1-.4.1l-2.9-.9c-.2-.1-.4 0-.6.1z" fill="white" />
  <path d="M13.1 22c-.2-.2-.2-.4-.1-.6l.9-2.9c0-.1-.1-.3-.2-.3l-2.9-.9c-.2-.1-.4-.3-.4-.5s0-.4.2-.6l2.2-2.2c.1-.1.1-.2.1-.4l-.9-2.9c-.1-.2 0-.4.1-.6.2-.2.4-.2.6-.1l2.9.9c.1 0 .3 0 .4-.1l2.2-2.2c.1-.1.3-.2.5-.2s.4.1.5.2l-5.4 5.4 5.4 5.4c-.1.1-.3.2-.5.2s-.4-.1-.5-.2l-2.2-2.2c-.1-.1-.2-.1-.4-.1l-2.9.9c-.2.1-.4 0-.6-.1z" fill="white" />
</svg> 